<svg width="80" height="80" viewBox="0 0 80 80" fill="none" xmlns="http://www.w3.org/2000/svg">
<path d="M77.0775 15.6161C76.554 13.0862 75.3326 10.8179 73.5878 9.07306C73.0644 8.54962 72.4537 8.02617 71.7558 7.58997L71.6685 7.50273C71.5813 7.41549 71.494 7.41549 71.4068 7.32824C71.1451 7.15376 70.8833 6.97928 70.6216 6.89204H70.5344C68.7023 5.93239 66.6958 5.40894 64.4275 5.40894H59.0186V1.65758C59.0186 0.785169 58.3207 0 57.361 0C56.4886 0 55.7034 0.697928 55.7034 1.65758V5.23446H24.3839V1.65758C24.3839 0.785169 23.5987 0 22.7263 0C21.8539 0 21.0687 0.697928 21.0687 1.65758V5.23446H15.6598C14.0022 5.23446 12.3446 5.58342 10.8615 6.19411C9.20396 6.89204 7.72087 7.85169 6.49949 9.07306C5.80156 9.77099 5.19088 10.5562 4.66743 11.3413C4.14399 12.2137 3.70778 13.0862 3.35882 14.0458C3.18433 14.5692 3.00985 15.0927 2.92261 15.6161C2.74813 16.4885 2.66089 17.361 2.66089 18.2334V26.9575V67.1756C2.66089 70.7525 4.14399 73.9804 6.41225 76.2486C8.76776 78.6041 11.9957 80 15.4853 80H64.5148C68.0916 80 71.3196 78.5169 73.5878 76.2486C75.9433 73.8931 77.3392 70.6652 77.3392 67.1756V26.9575V18.2334C77.3392 17.361 77.2519 16.4885 77.0775 15.6161ZM6.06329 18.1461C6.06329 17.4482 6.15053 16.8375 6.23777 16.2268C6.32501 15.6161 6.58673 15.0055 6.76122 14.3948C7.11018 13.6096 7.54638 12.9117 7.98259 12.301C8.24431 11.952 8.50604 11.6903 8.76776 11.3413C9.29121 10.8179 9.90189 10.3817 10.5126 9.94547C11.9957 9.07306 13.6533 8.54962 15.4853 8.54962H20.8943V12.1265C20.8943 12.9989 21.5922 13.7841 22.5518 13.7841C23.4242 13.7841 24.2094 13.0862 24.2094 12.1265V8.54962H55.9651V12.1265C55.9651 12.9989 56.6631 13.7841 57.6227 13.7841C58.4951 13.7841 59.2803 13.0862 59.2803 12.1265V8.54962H64.6892C66.5213 8.54962 68.2661 9.07306 69.662 9.94547C70.2727 10.3817 70.8834 10.8179 71.4068 11.3413C72.7154 12.6499 73.6751 14.3075 74.024 16.2268C74.1113 16.8375 74.1985 17.5354 74.1985 18.1461V25.2999H6.06329V18.1461ZM74.2858 67.0883C74.2858 69.7928 73.2389 72.2356 71.494 73.9804C69.7492 75.7252 67.3065 76.7721 64.6892 76.7721H15.6598C13.0426 76.7721 10.5998 75.7252 8.855 73.9804C7.11018 72.2356 6.06329 69.7928 6.06329 67.1756V28.5278H74.2858V67.0883Z" fill="#687079"/>
</svg>
