<svg width="80" height="80" viewBox="0 0 80 80" fill="none" xmlns="http://www.w3.org/2000/svg">
<g clip-path="url(#clip0_1605_79)">
<path d="M78.5828 34.2719C77.7533 33.0194 76.496 32.1564 75.0342 31.8293C75.9772 30.0257 75.9388 27.7753 74.7376 25.9619C73.8831 24.671 72.594 23.8373 71.1908 23.5217C71.4411 23.0445 71.626 22.5293 71.7365 21.9861C72.0429 20.4755 71.7438 18.9362 70.8924 17.6514C70.0629 16.3983 68.8056 15.5353 67.3438 15.2088C68.2868 13.4052 68.2483 11.1548 67.0472 9.34083C65.2912 6.68885 61.7035 5.95948 59.0509 7.71607L53.3075 11.5198C50.246 9.96705 46.9898 8.86537 43.6103 8.23793C42.5421 6.61622 41.3001 5.10865 39.9097 3.76099L37.5336 1.45813C35.7935 -0.228878 33.0646 -0.482175 31.0443 0.856328C28.6542 2.43897 27.9975 5.67139 29.5801 8.06153C29.6424 8.15614 29.7034 8.25135 29.7638 8.34657C21.9751 9.9225 14.8767 14.0558 9.62281 20.1123C3.92151 26.6852 0.78125 35.1032 0.78125 43.8153C0.78125 45.4853 0.895386 47.1582 1.12122 48.7867C2.86133 61.446 11.294 72.3554 23.1275 77.2584C27.5159 79.0772 32.1723 80.0001 36.9654 80.0001C44.5563 80.0001 51.8225 77.6752 57.9792 73.2776C64.0021 68.9747 68.5083 63.0366 71.0114 56.1054C71.2452 55.4596 70.9101 54.7461 70.2643 54.513C69.618 54.2798 68.9051 54.6143 68.6719 55.2607C66.341 61.7151 62.1436 67.2449 56.5326 71.2531C50.8008 75.348 44.0345 77.5123 36.9654 77.5123C33.3106 77.5123 29.7418 76.9355 26.3263 75.7978L36.4472 69.0955C36.4478 69.0949 36.4484 69.0949 36.449 69.0943C36.4496 69.0943 36.4496 69.0937 36.4502 69.0931L44.8615 63.523H44.8621C45.6171 63.0225 46.1328 62.2584 46.3135 61.3703C46.4942 60.4822 46.3184 59.5765 45.8179 58.8215L45.7068 58.653L47.3407 57.5709C48.5065 56.7988 49.9085 56.496 51.2891 56.7176C53.288 57.0386 55.318 56.5992 57.005 55.4816L70.5573 46.507C70.4645 47.6825 70.3119 48.8514 70.0989 50.0007C69.9732 50.6763 70.4194 51.3257 71.095 51.4508C71.1713 51.4655 71.2482 51.4722 71.3233 51.4722C71.9111 51.4722 72.4335 51.0535 72.5446 50.4548C72.8895 48.5999 73.0878 46.6999 73.1391 44.7974L76.9581 42.2681C78.2429 41.4173 79.1199 40.1166 79.4263 38.6066C79.7333 37.096 79.4336 35.5567 78.5828 34.2719ZM50.8924 13.1189L47.0917 15.636L46.3434 13.62C46.0309 12.7789 45.6726 11.9544 45.2759 11.1475C47.204 11.6364 49.0815 12.2955 50.8924 13.1189ZM11.5021 21.7426C16.5515 15.9216 23.4296 12.0087 30.954 10.6519C32.1613 13.5767 32.4506 16.8445 31.7291 19.9591L28.6963 33.0616C28.2196 32.5525 27.6007 32.2016 26.9037 32.06C26.015 31.8787 25.1099 32.0551 24.3549 32.5556L15.7642 38.2441C15.7636 38.2441 15.7636 38.2441 15.7629 38.2447C15.7629 38.2447 15.7623 38.2447 15.7623 38.2453L3.37219 46.4502C3.30445 45.5762 3.26904 44.6955 3.26904 43.8153C3.26904 35.7025 6.19324 27.8632 11.5021 21.7426ZM43.8758 60.8741C43.8275 61.1109 43.6896 61.3154 43.4876 61.449H43.4882L36.1005 66.341L22.3889 45.8924C22.0062 45.3217 21.2335 45.1697 20.6629 45.5524C20.0928 45.9351 19.9402 46.7072 20.3229 47.2779L34.0259 67.7149L23.4796 74.6992C12.9999 70.1154 5.50049 60.4352 3.69751 49.1712L16.1023 40.9833L17.5299 43.1134C17.7704 43.4711 18.1635 43.6646 18.5645 43.6646C18.8025 43.6646 19.0436 43.5968 19.256 43.454C19.8267 43.0713 19.9793 42.2986 19.5966 41.7279L18.1787 39.6131L25.7288 34.6295C25.9296 34.4959 26.1707 34.4495 26.4075 34.4977C26.6443 34.5459 26.8488 34.6839 26.9824 34.8853L43.7439 60.1954C43.877 60.3962 43.924 60.6373 43.8758 60.8741ZM76.9886 38.111C76.814 38.9704 76.3154 39.7101 75.5842 40.1941L71.2183 43.0854C71.2171 43.086 71.2159 43.0872 71.214 43.0878L55.6311 53.4076C54.4654 54.1797 53.0634 54.4831 51.6828 54.2609C49.6845 53.9405 47.6544 54.3793 45.9668 55.4969L44.3329 56.579L30.6049 35.8496L34.1535 20.5206C35.0672 16.5717 34.5856 12.4121 32.8449 8.78846C32.829 8.75062 32.8119 8.714 32.7924 8.67799C32.4579 7.99317 32.0783 7.3285 31.6541 6.68763C30.8289 5.44129 31.1713 3.75611 32.4182 2.9303C33.4717 2.23267 34.895 2.36451 35.802 3.24402L38.1781 5.54749C40.7483 8.03956 42.7655 11.1304 44.0107 14.4861L45.3046 17.9718C45.307 17.9785 45.3095 17.984 45.3119 17.9901C45.315 17.9981 45.3186 18.0066 45.3217 18.0145C45.3308 18.0359 45.3394 18.0554 45.3485 18.0719C45.3736 18.1244 45.401 18.1763 45.434 18.2257C45.8136 18.7988 46.5851 18.9557 47.1576 18.5761L60.4248 9.79066C61.9336 8.79151 63.974 9.20594 64.9732 10.7147C65.9723 12.2235 65.5579 14.2639 64.0491 15.2631L62.8974 16.026C62.8974 16.026 62.8968 16.026 62.8962 16.0266L60.3272 17.7283C60.3235 17.7307 60.3211 17.7332 60.3174 17.735C60.3028 17.7454 60.2887 17.7551 60.2771 17.7649C59.7461 18.1549 59.6088 18.8965 59.9768 19.4519C60.3559 20.025 61.128 20.1819 61.7011 19.8023L64.2719 18.0994C65.0025 17.6166 65.8771 17.4463 66.7359 17.6209C67.5947 17.7954 68.335 18.2941 68.8184 19.0253C69.3024 19.7559 69.4733 20.6317 69.2988 21.4905C69.1242 22.3499 68.6255 23.0896 67.8943 23.5736L64.1724 26.0388C63.5993 26.4179 63.4424 27.1894 63.8221 27.7625C64.0613 28.1238 64.4568 28.3197 64.8603 28.3197C65.0959 28.3197 65.3345 28.2526 65.5457 28.1128L66.1219 27.7313L68.1153 26.4112C69.6247 25.412 71.6645 25.8264 72.6636 27.3352C73.6628 28.8446 73.2483 30.8844 71.7395 31.8842L69.8804 33.1153C69.8707 33.1214 69.8609 33.1281 69.8511 33.1348L68.0176 34.3488C67.4445 34.7278 67.2876 35.4999 67.6673 36.073C67.9065 36.4344 68.302 36.6303 68.7055 36.6303C68.9411 36.6303 69.1797 36.5631 69.3909 36.4234L69.9671 36.0419C69.9671 36.0419 69.9671 36.0413 69.9677 36.0413L71.9611 34.7217C72.6917 34.2377 73.5669 34.0668 74.4263 34.242C75.2857 34.4159 76.0254 34.9152 76.5095 35.6458C76.9929 36.3764 77.1631 37.2522 76.9886 38.111Z" fill="#687079"/>
</g>
<defs>
<clipPath id="clip0_1605_79">
<rect width="80" height="80" fill="white"/>
</clipPath>
</defs>
</svg>
