<svg width="20" height="20" viewBox="0 0 20 20" fill="none" xmlns="http://www.w3.org/2000/svg">
<path d="M17.4748 4.92809C17.4455 4.60993 17.2374 4.33576 16.9383 4.22351L10.3812 1.76293C10.3064 1.72551 10.2267 1.70034 10.1438 1.68651C9.96327 1.64993 9.77394 1.68084 9.60802 1.76701L3.06161 4.22351C2.76244 4.33576 2.55427 4.60993 2.52511 4.92809C2.51619 5.02493 1.74144 14.6092 9.53094 18.1966C9.53911 18.2023 9.54802 18.208 9.55694 18.2128C9.68861 18.2934 9.83811 18.3333 9.98777 18.3333C10.0105 18.3333 10.0333 18.3325 10.0561 18.3309C10.191 18.322 10.3252 18.2805 10.4447 18.208C18.2601 14.6295 17.4838 5.02576 17.4748 4.92809ZM13.9355 8.07618L10.3694 11.805C10.2144 11.9669 10.0008 12.0598 9.77661 12.0622C9.77336 12.0622 9.77052 12.0622 9.76727 12.0622C9.54636 12.0622 9.33436 11.9743 9.17811 11.818L7.51144 10.1513C7.18594 9.82584 7.18594 9.29851 7.51144 8.97293C7.83694 8.64734 8.36427 8.64743 8.68986 8.97293L9.75394 10.0373L12.7313 6.92376C13.049 6.59093 13.578 6.57951 13.9093 6.89776C14.2419 7.21601 14.2537 7.74334 13.9355 8.07618Z" fill="#687079"/>
</svg>
