<svg width="16" height="16" viewBox="0 0 16 16" fill="none" xmlns="http://www.w3.org/2000/svg">
<g clip-path="url(#clip0_1554_1554)">
<path d="M8.00067 3.01932C9.56667 1.61332 11.9867 1.65999 13.4953 3.17132C15.0033 4.68332 15.0553 7.09132 13.6527 8.66199L7.99933 14.3233L2.34733 8.66199C0.944666 7.09132 0.997332 4.67932 2.50467 3.17132C4.01467 1.66199 6.43 1.61132 8.00067 3.01932ZM12.5513 4.11332C11.5513 3.11199 9.938 3.07132 8.89133 4.01132L8.00133 4.80999L7.11067 4.01199C6.06067 3.07065 4.45067 3.11199 3.448 4.11465C2.45467 5.10799 2.40467 6.69799 3.32 7.74865L8 12.436L12.68 7.74932C13.596 6.69799 13.546 5.10999 12.5513 4.11332Z" fill="white"/>
</g>
<defs>
<clipPath id="clip0_1554_1554">
<rect width="16" height="16" fill="white"/>
</clipPath>
</defs>
</svg>
