<svg width="20" height="21" viewBox="0 0 20 21" fill="none" xmlns="http://www.w3.org/2000/svg">
<g clip-path="url(#clip0_896_11576)">
<path d="M10.0009 4.27415C11.9584 2.51665 14.9834 2.57498 16.8692 4.46415C18.7542 6.35415 18.8192 9.36415 17.0659 11.3275L9.99919 18.4042L2.93419 11.3275C1.18086 9.36415 1.24669 6.34915 3.13086 4.46415C5.01836 2.57748 8.03753 2.51415 10.0009 4.27415ZM15.6892 5.64165C14.4392 4.38998 12.4225 4.33915 11.1142 5.51415L10.0017 6.51248L8.88836 5.51498C7.57586 4.33832 5.56336 4.38998 4.31003 5.64332C3.06836 6.88498 3.00586 8.87248 4.15003 10.1858L10 16.045L15.85 10.1866C16.995 8.87248 16.9325 6.88748 15.6892 5.64165Z" fill="#687079"/>
</g>
<defs>
<clipPath id="clip0_896_11576">
<rect width="20" height="20" fill="white" transform="translate(0 0.5)"/>
</clipPath>
</defs>
</svg>
