<svg width="80" height="80" viewBox="0 0 80 80" fill="none" xmlns="http://www.w3.org/2000/svg">
<path fill-rule="evenodd" clip-rule="evenodd" d="M39.9999 4.23532C24.406 4.23532 11.7646 16.8767 11.7646 32.4706C11.7646 36.1341 13.45 40.6886 16.2284 45.6234C18.9783 50.5074 22.6695 55.5415 26.3987 60.1055C30.1221 64.6623 33.8506 68.7109 36.6508 71.6225C38.0336 73.0606 39.1879 74.2186 39.9999 75.0205C40.812 74.2186 41.9662 73.0606 43.349 71.6225C46.1492 68.7109 49.8778 64.6623 53.6011 60.1055C57.3304 55.5415 61.0217 50.5074 63.7714 45.6234C66.5498 40.6886 68.2352 36.1341 68.2352 32.4706C68.2352 16.8767 55.5937 4.23532 39.9999 4.23532ZM39.9999 77.6472C38.7052 79.0134 38.7049 79.013 38.7045 79.0126L38.6981 79.0066L38.68 78.9897L38.6122 78.9249L38.3536 78.6764C38.1285 78.4588 37.8002 78.1392 37.3834 77.7277C36.5499 76.9048 35.3618 75.7132 33.9372 74.2322C31.0903 71.272 27.2895 67.1455 23.4834 62.4874C19.6832 57.8365 15.845 52.616 12.9479 47.4704C10.0791 42.3748 7.99988 37.1242 7.99988 32.4706C7.99988 14.7975 22.3268 0.470612 39.9999 0.470612C57.673 0.470612 71.9999 14.7975 71.9999 32.4706C71.9999 37.1242 69.9207 42.3748 67.052 47.4704C64.1547 52.616 60.3165 57.8365 56.5164 62.4874C52.7103 67.1455 48.9095 71.272 46.0626 74.2322C44.638 75.7132 43.4499 76.9048 42.6164 77.7277C42.1996 78.1392 41.8713 78.4588 41.6462 78.6764L41.3876 78.9249L41.3198 78.9897L41.3018 79.0066L41.2969 79.0115C41.2965 79.0119 41.2946 79.0134 39.9999 77.6472ZM39.9999 77.6472L41.2969 79.0115C40.571 79.6997 39.4303 79.7008 38.7045 79.0126L39.9999 77.6472Z" fill="#687079"/>
<path fill-rule="evenodd" clip-rule="evenodd" d="M40 15.5294C45.1979 15.5294 49.4117 19.7432 49.4117 24.9411C49.4117 30.1391 45.1979 34.3529 40 34.3529C34.802 34.3529 30.5882 30.1391 30.5882 24.9411C30.5882 19.7432 34.802 15.5294 40 15.5294ZM53.1765 24.9411C53.1765 17.664 47.2772 11.7647 40 11.7647C32.7228 11.7647 26.8235 17.664 26.8235 24.9411C26.8235 32.2183 32.7228 38.1176 40 38.1176C47.2772 38.1176 53.1765 32.2183 53.1765 24.9411Z" fill="#687079"/>
<path fill-rule="evenodd" clip-rule="evenodd" d="M18.3288 54.2472C31.7989 46.7313 48.2009 46.7313 61.6711 54.2472L63.5053 50.9595C48.8952 42.8077 31.1047 42.8077 16.4946 50.9595L18.3288 54.2472Z" fill="#687079"/>
</svg>
