<svg width="80" height="80" viewBox="0 0 80 80" fill="none" xmlns="http://www.w3.org/2000/svg">
<g clip-path="url(#clip0_881_9485)">
<path d="M79.3184 76.0284L61.1412 57.8512C66.7201 51.4893 69.7984 43.4395 69.7984 34.8992C69.7984 25.5768 66.1676 16.8134 59.5763 10.2221C52.9849 3.63079 44.2215 0 34.8992 0C25.5768 0 16.8134 3.63079 10.2221 10.2221C3.63079 16.8134 0 25.5768 0 34.8992C0 44.2215 3.63079 52.9849 10.2221 59.5763C16.8134 66.1676 25.5768 69.7984 34.8992 69.7984C43.4395 69.7984 51.4893 66.7201 57.8512 61.1412L76.0284 79.3184C76.4828 79.7728 77.0781 80 77.6734 80C78.2687 80 78.864 79.7728 79.3184 79.3184C80.2272 78.4095 80.2272 76.9372 79.3184 76.0284ZM13.5121 56.2863C7.80006 50.5731 4.65322 42.9776 4.65322 34.8992C4.65322 26.8208 7.80006 19.2252 13.5121 13.5121C19.2252 7.80006 26.8208 4.65322 34.8992 4.65322C42.9776 4.65322 50.5731 7.80006 56.2863 13.5121C61.9983 19.2252 65.1451 26.8208 65.1451 34.8992C65.1451 42.9776 61.9983 50.5731 56.2863 56.2863C50.5731 61.9983 42.9776 65.1451 34.8992 65.1451C26.8208 65.1451 19.2252 61.9983 13.5121 56.2863Z" fill="#687079"/>
</g>
<defs>
<clipPath id="clip0_881_9485">
<rect width="80" height="80" fill="white"/>
</clipPath>
</defs>
</svg>
