<svg width="24" height="24" viewBox="0 0 24 24" fill="none" xmlns="http://www.w3.org/2000/svg">
<mask id="path-1-inside-1_2400_3392" fill="white">
<path fill-rule="evenodd" clip-rule="evenodd" d="M11.3545 1.77493C11.7628 1.58023 12.2372 1.58023 12.6456 1.77493C12.9986 1.94325 13.1932 2.23549 13.2914 2.39581C13.3929 2.56155 13.497 2.77269 13.5986 2.97848C13.6037 2.98899 13.6089 2.99948 13.6141 3.00996L15.7543 7.34575L20.5763 8.05055C20.8033 8.08369 21.0362 8.11768 21.2252 8.16311C21.4079 8.20706 21.7458 8.30211 22.0147 8.58595C22.3258 8.91431 22.4721 9.36553 22.4129 9.81397C22.3617 10.2016 22.1439 10.4768 22.0217 10.6197C21.8954 10.7673 21.7267 10.9315 21.5624 11.0915L18.0745 14.4886L18.8975 19.2869C18.9364 19.5131 18.9762 19.7452 18.9916 19.939C19.0064 20.1264 19.0207 20.4773 18.834 20.8211C18.6181 21.2187 18.2342 21.4975 17.7893 21.58C17.4047 21.6513 17.0755 21.5292 16.9018 21.4571C16.7223 21.3826 16.5138 21.273 16.3107 21.1661L12 18.8991L7.68936 21.1661C7.4862 21.273 7.27778 21.3826 7.09823 21.4571C6.9246 21.5292 6.59531 21.6513 6.21071 21.58C5.76584 21.4975 5.38196 21.2187 5.16601 20.8211C4.97931 20.4773 4.99365 20.1264 5.00849 19.939C5.02383 19.7453 5.06369 19.5131 5.10254 19.2869L5.9255 14.4886L2.46283 11.116C2.45448 11.1079 2.4461 11.0997 2.43771 11.0915C2.27335 10.9315 2.10469 10.7673 1.97838 10.6197C1.85618 10.4768 1.63833 10.2016 1.58714 9.81397C1.52792 9.36553 1.67422 8.91432 1.98531 8.58595C2.25423 8.30211 2.59214 8.20706 2.7749 8.16311C2.96382 8.11768 3.19673 8.08369 3.42372 8.05055C3.43531 8.04886 3.44688 8.04717 3.45842 8.04549L8.24576 7.34575L10.386 3.00996C10.3911 2.99948 10.3963 2.98899 10.4015 2.97848C10.503 2.77269 10.6072 2.56155 10.7087 2.39581C10.8068 2.23549 11.0014 1.94325 11.3545 1.77493Z"/>
</mask>
<path d="M12.6456 1.77493L9.20258 8.99613L9.20258 8.99613L12.6456 1.77493ZM11.3545 1.77493L7.91145 -5.44627L7.91145 -5.44627L11.3545 1.77493ZM13.2914 2.39581L6.46855 6.57298L6.46855 6.57299L13.2914 2.39581ZM13.5986 2.97848L20.7729 -0.561071L20.7729 -0.561074L13.5986 2.97848ZM13.6141 3.00996L20.7878 -0.531033L20.7877 -0.531121L13.6141 3.00996ZM15.7543 7.34575L8.58063 10.8867C9.74495 13.2455 11.9944 14.8812 14.5973 15.2616L15.7543 7.34575ZM20.5763 8.05055L19.4193 15.9664L19.4209 15.9667L20.5763 8.05055ZM21.2252 8.16311L23.0956 0.384836L23.0955 0.384832L21.2252 8.16311ZM22.0147 8.58595L27.8223 3.08393L27.8223 3.0839L22.0147 8.58595ZM22.4129 9.81397L30.344 10.8614L30.344 10.8614L22.4129 9.81397ZM22.0217 10.6197L15.9429 5.41882L15.9429 5.41888L22.0217 10.6197ZM21.5624 11.0915L15.9817 5.35952L15.9805 5.36063L21.5624 11.0915ZM18.0745 14.4886L12.4927 8.75777C10.6057 10.5957 9.74439 13.2448 10.1897 15.841L18.0745 14.4886ZM18.8975 19.2869L11.0126 20.6392L11.0129 20.6409L18.8975 19.2869ZM18.9916 19.939L11.0165 20.5705L11.0165 20.5705L18.9916 19.939ZM18.834 20.8211L11.8041 17.0026L11.8041 17.0027L18.834 20.8211ZM17.7893 21.58L16.3312 13.714L16.3312 13.714L17.7893 21.58ZM16.9018 21.4571L19.9677 14.0679L19.9677 14.0679L16.9018 21.4571ZM16.3107 21.1661L20.0358 14.0862L20.0343 14.0855L16.3107 21.1661ZM12 18.8991L15.7236 11.8185C13.3926 10.5927 10.6075 10.5927 8.27641 11.8185L12 18.8991ZM7.68936 21.1661L3.96574 14.0855L3.96429 14.0863L7.68936 21.1661ZM7.09823 21.4571L10.1642 28.8463L10.1642 28.8463L7.09823 21.4571ZM6.21071 21.58L7.66888 13.714L7.66887 13.714L6.21071 21.58ZM5.16601 20.8211L12.1959 17.0027L12.1959 17.0027L5.16601 20.8211ZM5.00849 19.939L-2.96655 19.3075L-2.96655 19.3075L5.00849 19.939ZM5.10254 19.2869L12.9871 20.6408L12.9874 20.6393L5.10254 19.2869ZM5.9255 14.4886L13.8104 15.841C14.2557 13.2448 13.3944 10.5957 11.5074 8.75778L5.9255 14.4886ZM2.46283 11.116L8.0447 5.38514L8.04467 5.38511L2.46283 11.116ZM2.43771 11.0915L8.0185 5.35963L8.01841 5.35954L2.43771 11.0915ZM1.97838 10.6197L8.05715 5.41886L8.05714 5.41885L1.97838 10.6197ZM1.58714 9.81397L-6.344 10.8614L-6.344 10.8614L1.58714 9.81397ZM1.98531 8.58595L7.79286 14.088L7.79286 14.088L1.98531 8.58595ZM2.7749 8.16311L0.904499 0.384832L0.904489 0.384834L2.7749 8.16311ZM3.42372 8.05055L4.57916 15.9667L4.57922 15.9667L3.42372 8.05055ZM3.45842 8.04549L4.61535 15.9614L4.61545 15.9614L3.45842 8.04549ZM8.24576 7.34575L9.40279 15.2616C12.0056 14.8812 14.2551 13.2455 15.4194 10.8867L8.24576 7.34575ZM10.386 3.00996L17.5596 6.55095L17.5596 6.55092L10.386 3.00996ZM10.4015 2.97848L17.5758 6.51817L17.5759 6.51804L10.4015 2.97848ZM10.7087 2.39581L17.5315 6.57299L17.5315 6.57298L10.7087 2.39581ZM16.0886 -5.44627C13.5023 -6.67937 10.4977 -6.67937 7.91145 -5.44627L14.7975 8.99613C13.0279 9.83983 10.9721 9.83983 9.20258 8.99613L16.0886 -5.44627ZM20.1142 -1.78136C19.8368 -2.2345 18.6297 -4.23468 16.0886 -5.44627L9.20258 8.99613C7.36748 8.12117 6.54966 6.70547 6.46855 6.57298L20.1142 -1.78136ZM20.7729 -0.561074C20.72 -0.668272 20.4455 -1.2403 20.1142 -1.78137L6.46855 6.57299C6.44317 6.53152 6.42228 6.49614 6.40608 6.46816C6.38983 6.44009 6.37694 6.41712 6.36761 6.40026C6.3497 6.36788 6.34048 6.34996 6.34194 6.35277C6.34326 6.35532 6.3499 6.36823 6.36475 6.39796C6.37193 6.41233 6.3802 6.42898 6.39026 6.44931C6.40054 6.47009 6.41115 6.49159 6.42419 6.51803L20.7729 -0.561074ZM20.7877 -0.531121C20.783 -0.54074 20.7781 -0.550535 20.7729 -0.561071L6.42419 6.51803C6.42936 6.52851 6.43489 6.53971 6.44048 6.55104L20.7877 -0.531121ZM22.9279 3.80475L20.7878 -0.531033L6.44044 6.55095L8.58063 10.8867L22.9279 3.80475ZM23.0955 0.384832C22.4787 0.236512 21.85 0.151693 21.7318 0.134432L19.4209 15.9667C19.4501 15.9709 19.4738 15.9744 19.4967 15.9778C19.5191 15.9811 19.5375 15.9838 19.5534 15.9862C19.5862 15.9912 19.6005 15.9935 19.6033 15.994C19.6064 15.9945 19.5865 15.9912 19.5502 15.9842C19.5313 15.9805 19.5055 15.9753 19.4737 15.9685C19.4421 15.9617 19.402 15.9528 19.3548 15.9414L23.0955 0.384832ZM27.8223 3.0839C25.8866 1.04076 23.6124 0.50912 23.0956 0.384836L19.3547 15.9414C19.2034 15.905 17.605 15.5635 16.2072 14.088L27.8223 3.0839ZM30.344 10.8614C30.7191 8.02123 29.7925 5.16355 27.8223 3.08393L16.2072 14.088C14.8591 12.6651 14.2251 10.7098 14.4818 8.76657L30.344 10.8614ZM28.1004 15.8205C28.446 15.4166 29.9756 13.6516 30.344 10.8614L14.4818 8.76657C14.7479 6.75159 15.8417 5.53712 15.9429 5.41882L28.1004 15.8205ZM27.1431 16.8235C27.2287 16.7401 27.688 16.3025 28.1005 15.8205L15.9429 5.41888C15.9745 5.38194 16.0017 5.35115 16.0233 5.3271C16.045 5.30297 16.0629 5.28361 16.0761 5.26953C16.1013 5.24248 16.1156 5.22817 16.1134 5.2304C16.1114 5.23243 16.1012 5.24271 16.0775 5.26599C16.066 5.27724 16.0527 5.29024 16.0365 5.30606C16.02 5.32224 16.0028 5.33897 15.9817 5.35952L27.1431 16.8235ZM26.9666 19.3076C26.9165 18.675 26.8023 18.0508 26.7821 17.9328L11.0129 20.6409C11.0179 20.67 11.022 20.6936 11.0259 20.7165C11.0297 20.7388 11.0328 20.7572 11.0354 20.773C11.0409 20.8058 11.0431 20.8202 11.0435 20.823C11.044 20.8262 11.0409 20.8063 11.0364 20.7695C11.034 20.7504 11.031 20.7243 11.0276 20.692C11.0243 20.6599 11.0204 20.619 11.0165 20.5705L26.9666 19.3076ZM25.864 24.6395C27.2079 22.1652 27.0085 19.837 26.9666 19.3075L11.0165 20.5705C11.0043 20.4159 10.8336 18.7895 11.8041 17.0026L25.864 24.6395ZM19.2475 29.446C22.065 28.9237 24.4963 27.1575 25.864 24.6395L11.8041 17.0027C12.7399 15.2798 14.4034 14.0714 16.3312 13.714L19.2475 29.446ZM13.8359 28.8463C14.3264 29.0498 16.479 29.9592 19.2475 29.446L16.3312 13.714C18.3305 13.3434 19.8245 14.0085 19.9677 14.0679L13.8359 28.8463ZM12.5856 28.2459C12.6914 28.3016 13.2499 28.6032 13.836 28.8463L19.9677 14.0679C20.0126 14.0865 20.0503 14.1029 20.0798 14.116C20.1095 14.1292 20.1334 14.1402 20.1509 14.1484C20.1844 14.164 20.2024 14.1731 20.1995 14.1717C20.197 14.1704 20.184 14.1638 20.1545 14.1485C20.1402 14.1411 20.1237 14.1325 20.1036 14.1219C20.0831 14.1112 20.0619 14.1 20.0358 14.0862L12.5856 28.2459ZM10.1642 28.8463C10.7502 28.6031 11.3085 28.3016 11.4144 28.2459L3.96429 14.0863C3.93819 14.1 3.91696 14.1112 3.89642 14.1219C3.87634 14.1325 3.85985 14.1411 3.84559 14.1485C3.81608 14.1638 3.80311 14.1704 3.80052 14.1717C3.79767 14.1731 3.81564 14.164 3.84915 14.1484C3.86659 14.1402 3.89051 14.1292 3.92015 14.116C3.94969 14.1029 3.98737 14.0866 4.03227 14.0679L10.1642 28.8463ZM4.75254 29.446C7.52108 29.9592 9.67356 29.0499 10.1642 28.8463L4.0323 14.0679C4.17563 14.0085 5.66955 13.3434 7.66888 13.714L4.75254 29.446ZM-1.86392 24.6395C-0.4962 27.1575 1.93504 28.9237 4.75255 29.446L7.66887 13.714C9.59664 14.0714 11.2601 15.2798 12.1959 17.0027L-1.86392 24.6395ZM-2.96655 19.3075C-3.00847 19.837 -3.20786 22.1652 -1.86391 24.6395L12.1959 17.0027C13.1665 18.7895 12.9958 20.4159 12.9835 20.5705L-2.96655 19.3075ZM-2.78206 17.933C-2.8023 18.0508 -2.91647 18.6751 -2.96655 19.3075L12.9835 20.5705C12.9797 20.619 12.9758 20.6599 12.9724 20.692C12.9691 20.7243 12.966 20.7504 12.9637 20.7695C12.9591 20.8063 12.956 20.8262 12.9565 20.823C12.9569 20.8201 12.9592 20.8058 12.9646 20.773C12.9673 20.7571 12.9704 20.7388 12.9742 20.7164C12.9781 20.6936 12.9821 20.6699 12.9871 20.6408L-2.78206 17.933ZM-3.11903 16.8469L0.34364 20.2195L11.5074 8.75778L8.0447 5.38514L-3.11903 16.8469ZM-3.14307 16.8235C-3.13438 16.8319 -3.12669 16.8394 -3.119 16.8469L8.04467 5.38511C8.03564 5.37632 8.02658 5.3675 8.0185 5.35963L-3.14307 16.8235ZM-4.1004 15.8205C-3.68796 16.3026 -3.2286 16.7402 -3.14298 16.8235L8.01841 5.35954C7.99729 5.33898 7.98012 5.32226 7.96353 5.30608C7.94731 5.29025 7.93404 5.27725 7.92259 5.26599C7.8989 5.24271 7.88869 5.23243 7.88668 5.2304C7.88447 5.22816 7.89869 5.24246 7.92397 5.26951C7.93714 5.28359 7.95501 5.30295 7.9767 5.32707C7.99832 5.35112 8.02554 5.38191 8.05715 5.41886L-4.1004 15.8205ZM-6.344 10.8614C-5.97552 13.6516 -4.44596 15.4166 -4.10039 15.8205L8.05714 5.41885C8.15831 5.5371 9.25218 6.75158 9.51828 8.76658L-6.344 10.8614ZM-3.82223 3.08392C-5.79248 5.16356 -6.71906 8.02125 -6.344 10.8614L9.51828 8.76658C9.7749 10.7098 9.14093 12.6651 7.79286 14.088L-3.82223 3.08392ZM0.904489 0.384834C0.387665 0.509113 -1.88655 1.04075 -3.82224 3.08392L7.79286 14.088C6.395 15.5635 4.79661 15.905 4.6453 15.9414L0.904489 0.384834ZM2.26829 0.134433C2.15006 0.15169 1.52131 0.236511 0.904499 0.384832L4.64529 15.9414C4.59802 15.9528 4.55792 15.9617 4.5263 15.9685C4.49458 15.9753 4.46875 15.9805 4.44984 15.9842C4.41349 15.9912 4.39359 15.9945 4.3967 15.994C4.39952 15.9935 4.41383 15.9912 4.44667 15.9862C4.46255 15.9838 4.48093 15.9811 4.50335 15.9778C4.52627 15.9744 4.55 15.9709 4.57916 15.9667L2.26829 0.134433ZM2.3015 0.129584C2.29081 0.131145 2.28003 0.13272 2.26823 0.134442L4.57922 15.9667C4.59059 15.965 4.60294 15.9632 4.61535 15.9614L2.3015 0.129584ZM7.08874 -0.570143L2.3014 0.129598L4.61545 15.9614L9.40279 15.2616L7.08874 -0.570143ZM3.21229 -0.531032L1.0721 3.80475L15.4194 10.8867L17.5596 6.55095L3.21229 -0.531032ZM3.22718 -0.561212C3.22172 -0.550139 3.21704 -0.540642 3.21228 -0.530999L17.5596 6.55092C17.5652 6.53961 17.5709 6.52812 17.5758 6.51817L3.22718 -0.561212ZM3.88582 -1.78138C3.55455 -1.24031 3.28001 -0.668278 3.22712 -0.561081L17.5759 6.51804C17.5889 6.4916 17.5995 6.47009 17.6098 6.44931C17.6198 6.42899 17.6281 6.41234 17.6353 6.39797C17.6501 6.36823 17.6568 6.35533 17.6581 6.35278C17.6596 6.34996 17.6503 6.36788 17.6324 6.40027C17.6231 6.41713 17.6102 6.4401 17.594 6.46817C17.5778 6.49615 17.5569 6.53153 17.5315 6.57299L3.88582 -1.78138ZM7.91145 -5.44627C5.37032 -4.23468 4.16323 -2.23449 3.88581 -1.78137L17.5315 6.57298C17.4504 6.70546 16.6326 8.12117 14.7975 8.99613L7.91145 -5.44627ZM21.7333 0.134665L16.9113 -0.570144L14.5973 15.2616L19.4193 15.9664L21.7333 0.134665ZM23.6564 20.2195L27.1442 16.8224L15.9805 5.36063L12.4927 8.75777L23.6564 20.2195ZM26.7824 17.9345L25.9594 13.1363L10.1897 15.841L11.0126 20.6392L26.7824 17.9345ZM8.27641 25.9797L12.5871 28.2467L20.0343 14.0855L15.7236 11.8185L8.27641 25.9797ZM11.413 28.2467L15.7236 25.9797L8.27641 11.8185L3.96574 14.0855L11.413 28.2467ZM-1.95937 13.1363L-2.78233 17.9345L12.9874 20.6393L13.8104 15.841L-1.95937 13.1363Z" fill="#FFD666" mask="url(#path-1-inside-1_2400_3392)"/>
</svg>
