<svg width="24" height="24" viewBox="0 0 24 24" fill="none" xmlns="http://www.w3.org/2000/svg">
<mask id="path-1-inside-1_1041_8" fill="white">
<path fill-rule="evenodd" clip-rule="evenodd" d="M11.3545 1.77566C11.7628 1.58096 12.2372 1.58096 12.6456 1.77566C12.9986 1.94398 13.1932 2.23622 13.2914 2.39654C13.3929 2.56228 13.497 2.77342 13.5986 2.97921C13.6037 2.98972 13.6089 3.00022 13.6141 3.01069L15.7543 7.34648L20.5763 8.05129C20.8033 8.08442 21.0362 8.11841 21.2252 8.16384C21.4079 8.20779 21.7458 8.30284 22.0147 8.58668C22.3258 8.91505 22.4721 9.36626 22.4129 9.8147C22.3617 10.2023 22.1439 10.4776 22.0217 10.6204C21.8954 10.768 21.7267 10.9322 21.5624 11.0922L18.0745 14.4894L18.8975 19.2876C18.9364 19.5139 18.9762 19.746 18.9916 19.9398C19.0064 20.1272 19.0207 20.4781 18.834 20.8218C18.6181 21.2194 18.2342 21.4983 17.7893 21.5807C17.4047 21.652 17.0755 21.5299 16.9018 21.4579C16.7223 21.3834 16.5138 21.2737 16.3107 21.1668L12 18.8999L7.68936 21.1668C7.4862 21.2737 7.27778 21.3834 7.09823 21.4579C6.9246 21.5299 6.59531 21.652 6.21071 21.5807C5.76584 21.4983 5.38196 21.2194 5.16601 20.8218C4.97931 20.4781 4.99365 20.1272 5.00849 19.9398C5.02383 19.746 5.06369 19.5139 5.10254 19.2876L5.9255 14.4894L2.46283 11.1167C2.45448 11.1086 2.4461 11.1004 2.43771 11.0923C2.27335 10.9322 2.10469 10.768 1.97838 10.6204C1.85618 10.4776 1.63833 10.2023 1.58714 9.8147C1.52792 9.36626 1.67422 8.91505 1.98531 8.58668C2.25423 8.30284 2.59214 8.20779 2.7749 8.16384C2.96382 8.11841 3.19673 8.08442 3.42372 8.05129C3.43531 8.0496 3.44688 8.04791 3.45842 8.04622L8.24576 7.34648L10.386 3.01069C10.3911 3.00022 10.3963 2.98972 10.4015 2.97921C10.503 2.77342 10.6072 2.56228 10.7087 2.39654C10.8068 2.23622 11.0014 1.94398 11.3545 1.77566Z"/>
</mask>
<path d="M12.6456 1.77566L9.20258 8.99686H9.20258L12.6456 1.77566ZM11.3545 1.77566L7.91145 -5.44553L7.91145 -5.44553L11.3545 1.77566ZM13.2914 2.39654L6.46855 6.57371L6.46855 6.57372L13.2914 2.39654ZM13.5986 2.97921L20.7729 -0.560338L20.7729 -0.560341L13.5986 2.97921ZM13.6141 3.01069L20.7878 -0.5303L20.7877 -0.530389L13.6141 3.01069ZM15.7543 7.34648L8.58063 10.8875C9.74495 13.2463 11.9944 14.8819 14.5973 15.2624L15.7543 7.34648ZM20.5763 8.05129L19.4193 15.9672L19.4209 15.9674L20.5763 8.05129ZM21.2252 8.16384L23.0956 0.385568L23.0956 0.385564L21.2252 8.16384ZM22.0147 8.58668L27.8223 3.08466L27.8223 3.08464L22.0147 8.58668ZM22.4129 9.8147L30.344 10.8621V10.8621L22.4129 9.8147ZM22.0217 10.6204L15.9429 5.41956L15.9429 5.41961L22.0217 10.6204ZM21.5624 11.0922L15.9817 5.36025L15.9805 5.36137L21.5624 11.0922ZM18.0745 14.4894L12.4927 8.75851C10.6057 10.5964 9.74439 13.2455 10.1897 15.8417L18.0745 14.4894ZM18.8975 19.2876L11.0126 20.64L11.0129 20.6416L18.8975 19.2876ZM18.9916 19.9398L11.0165 20.5712L11.0165 20.5712L18.9916 19.9398ZM18.834 20.8218L11.8041 17.0034L11.8041 17.0034L18.834 20.8218ZM17.7893 21.5807L16.3312 13.7147L16.3312 13.7147L17.7893 21.5807ZM16.9018 21.4579L19.9677 14.0687L19.9677 14.0686L16.9018 21.4579ZM16.3107 21.1668L20.0358 14.087L20.0343 14.0862L16.3107 21.1668ZM12 18.8999L15.7236 11.8193C13.3926 10.5934 10.6075 10.5934 8.27641 11.8193L12 18.8999ZM7.68936 21.1668L3.96574 14.0862L3.96429 14.087L7.68936 21.1668ZM7.09823 21.4579L10.1642 28.847L10.1642 28.847L7.09823 21.4579ZM6.21071 21.5807L7.66888 13.7147L7.66887 13.7147L6.21071 21.5807ZM5.16601 20.8218L12.1959 17.0034L12.1959 17.0034L5.16601 20.8218ZM5.00849 19.9398L-2.96655 19.3083L-2.96655 19.3083L5.00849 19.9398ZM5.10254 19.2876L12.9871 20.6416L12.9874 20.64L5.10254 19.2876ZM5.9255 14.4894L13.8104 15.8417C14.2557 13.2455 13.3944 10.5964 11.5074 8.75851L5.9255 14.4894ZM2.46283 11.1167L8.0447 5.38587L8.04467 5.38584L2.46283 11.1167ZM2.43771 11.0923L8.0185 5.36036L8.01841 5.36027L2.43771 11.0923ZM1.97838 10.6204L8.05715 5.41959L8.05714 5.41958L1.97838 10.6204ZM1.58714 9.8147L-6.344 10.8621L1.58714 9.8147ZM1.98531 8.58668L7.79286 14.0887L7.79286 14.0887L1.98531 8.58668ZM2.7749 8.16384L0.904499 0.385564L0.904489 0.385567L2.7749 8.16384ZM3.42372 8.05129L4.57916 15.9674L4.57922 15.9674L3.42372 8.05129ZM3.45842 8.04622L4.61535 15.9621L4.61545 15.9621L3.45842 8.04622ZM8.24576 7.34648L9.40279 15.2624C12.0056 14.8819 14.2551 13.2462 15.4194 10.8875L8.24576 7.34648ZM10.386 3.01069L17.5596 6.55168L17.5596 6.55165L10.386 3.01069ZM10.4015 2.97921L17.5758 6.5189L17.5759 6.51877L10.4015 2.97921ZM10.7087 2.39654L17.5315 6.57373L17.5315 6.57371L10.7087 2.39654ZM16.0886 -5.44553C13.5023 -6.67864 10.4977 -6.67864 7.91145 -5.44553L14.7975 8.99686C13.0279 9.84056 10.9721 9.84056 9.20258 8.99686L16.0886 -5.44553ZM20.1142 -1.78063C19.8368 -2.23377 18.6297 -4.23394 16.0886 -5.44553L9.20258 8.99686C7.36748 8.1219 6.54966 6.7062 6.46855 6.57371L20.1142 -1.78063ZM20.7729 -0.560341C20.72 -0.66754 20.4455 -1.23957 20.1142 -1.78064L6.46855 6.57372C6.44317 6.53225 6.42228 6.49687 6.40608 6.46889C6.38983 6.44082 6.37694 6.41785 6.36761 6.40099C6.3497 6.36861 6.34048 6.35069 6.34194 6.3535C6.34326 6.35606 6.3499 6.36896 6.36475 6.39869C6.37193 6.41307 6.3802 6.42972 6.39026 6.45004C6.40054 6.47082 6.41115 6.49233 6.42419 6.51876L20.7729 -0.560341ZM20.7877 -0.530389C20.783 -0.540007 20.7781 -0.549802 20.7729 -0.560338L6.42419 6.51876C6.42937 6.52924 6.43489 6.54044 6.44048 6.55177L20.7877 -0.530389ZM22.9279 3.80549L20.7878 -0.5303L6.44044 6.55168L8.58063 10.8875L22.9279 3.80549ZM23.0956 0.385564C22.4787 0.237245 21.85 0.152426 21.7318 0.135165L19.4209 15.9674C19.4501 15.9717 19.4738 15.9751 19.4967 15.9785C19.5191 15.9818 19.5375 15.9845 19.5534 15.9869C19.5862 15.9919 19.6005 15.9942 19.6033 15.9947C19.6064 15.9952 19.5865 15.992 19.5502 15.9849C19.5313 15.9812 19.5055 15.976 19.4737 15.9692C19.4421 15.9624 19.402 15.9535 19.3548 15.9421L23.0956 0.385564ZM27.8223 3.08464C25.8866 1.04149 23.6124 0.509852 23.0956 0.385568L19.3547 15.9421C19.2034 15.9057 17.605 15.5642 16.2072 14.0887L27.8223 3.08464ZM30.344 10.8621C30.7191 8.02196 29.7925 5.16429 27.8223 3.08466L16.2072 14.0887C14.8591 12.6658 14.2251 10.7106 14.4818 8.7673L30.344 10.8621ZM28.1004 15.8213C28.446 15.4173 29.9756 13.6523 30.344 10.8621L14.4818 8.7673C14.7479 6.75232 15.8417 5.53785 15.9429 5.41956L28.1004 15.8213ZM27.1431 16.8242C27.2287 16.7409 27.688 16.3032 28.1005 15.8212L15.9429 5.41961C15.9745 5.38267 16.0017 5.35188 16.0233 5.32783C16.045 5.3037 16.0629 5.28434 16.0761 5.27026C16.1013 5.24321 16.1156 5.2289 16.1134 5.23114C16.1114 5.23317 16.1012 5.24344 16.0775 5.26672C16.066 5.27797 16.0527 5.29097 16.0365 5.3068C16.02 5.32298 16.0028 5.3397 15.9817 5.36025L27.1431 16.8242ZM26.9666 19.3083C26.9165 18.6758 26.8023 18.0515 26.7821 17.9336L11.0129 20.6416C11.0179 20.6707 11.022 20.6943 11.0259 20.7172C11.0297 20.7396 11.0328 20.7579 11.0354 20.7737C11.0409 20.8065 11.0431 20.8209 11.0435 20.8238C11.044 20.8269 11.0409 20.807 11.0364 20.7703C11.034 20.7512 11.031 20.725 11.0276 20.6928C11.0243 20.6606 11.0204 20.6197 11.0165 20.5712L26.9666 19.3083ZM25.864 24.6402C27.2079 22.1659 27.0085 19.8377 26.9666 19.3083L11.0165 20.5712C11.0043 20.4166 10.8336 18.7902 11.8041 17.0034L25.864 24.6402ZM19.2475 29.4467C22.065 28.9244 24.4963 27.1582 25.864 24.6402L11.8041 17.0034C12.7399 15.2805 14.4034 14.0721 16.3312 13.7147L19.2475 29.4467ZM13.8359 28.847C14.3264 29.0506 16.479 29.9599 19.2475 29.4467L16.3312 13.7147C18.3305 13.3441 19.8245 14.0092 19.9677 14.0687L13.8359 28.847ZM12.5856 28.2466C12.6914 28.3023 13.2499 28.6039 13.836 28.8471L19.9677 14.0686C20.0126 14.0873 20.0503 14.1036 20.0798 14.1168C20.1095 14.1299 20.1334 14.1409 20.1509 14.1491C20.1844 14.1648 20.2024 14.1738 20.1995 14.1724C20.197 14.1711 20.184 14.1646 20.1545 14.1492C20.1402 14.1418 20.1237 14.1332 20.1036 14.1227C20.0831 14.1119 20.0619 14.1007 20.0358 14.087L12.5856 28.2466ZM10.1642 28.847C10.7502 28.6039 11.3085 28.3023 11.4144 28.2466L3.96429 14.087C3.93819 14.1007 3.91696 14.1119 3.89642 14.1227C3.87633 14.1332 3.85985 14.1418 3.84559 14.1492C3.81608 14.1646 3.80311 14.1711 3.80052 14.1724C3.79767 14.1738 3.81564 14.1648 3.84915 14.1491C3.86659 14.1409 3.89051 14.1299 3.92015 14.1168C3.94969 14.1037 3.98737 14.0873 4.03227 14.0687L10.1642 28.847ZM4.75254 29.4467C7.52108 29.9599 9.67356 29.0506 10.1642 28.847L4.0323 14.0687C4.17563 14.0092 5.66955 13.3441 7.66888 13.7147L4.75254 29.4467ZM-1.86392 24.6402C-0.4962 27.1583 1.93504 28.9244 4.75255 29.4467L7.66887 13.7147C9.59664 14.0721 11.2601 15.2805 12.1959 17.0034L-1.86392 24.6402ZM-2.96655 19.3083C-3.00847 19.8377 -3.20786 22.1659 -1.86391 24.6402L12.1959 17.0034C13.1665 18.7902 12.9958 20.4166 12.9835 20.5712L-2.96655 19.3083ZM-2.78205 17.9337C-2.8023 18.0516 -2.91647 18.6758 -2.96655 19.3083L12.9835 20.5713C12.9797 20.6197 12.9758 20.6606 12.9724 20.6928C12.9691 20.725 12.966 20.7512 12.9637 20.7703C12.9591 20.807 12.956 20.8269 12.9565 20.8237C12.9569 20.8209 12.9592 20.8065 12.9646 20.7737C12.9673 20.7579 12.9704 20.7395 12.9742 20.7171C12.9781 20.6943 12.9821 20.6706 12.9871 20.6416L-2.78205 17.9337ZM-3.11903 16.8476L0.34364 20.2202L11.5074 8.75851L8.0447 5.38587L-3.11903 16.8476ZM-3.14307 16.8242C-3.13438 16.8327 -3.12669 16.8401 -3.119 16.8476L8.04467 5.38584C8.03564 5.37705 8.02658 5.36823 8.0185 5.36036L-3.14307 16.8242ZM-4.1004 15.8212C-3.68796 16.3033 -3.2286 16.7409 -3.14298 16.8243L8.01841 5.36027C7.99729 5.33972 7.98012 5.32299 7.96353 5.30681C7.94731 5.29098 7.93404 5.27798 7.92259 5.26673C7.8989 5.24344 7.88869 5.23316 7.88668 5.23113C7.88447 5.22889 7.89868 5.2432 7.92397 5.27024C7.93714 5.28432 7.95501 5.30368 7.9767 5.3278C7.99832 5.35185 8.02554 5.38264 8.05715 5.41959L-4.1004 15.8212ZM-6.344 10.8621C-5.97552 13.6524 -4.44596 15.4173 -4.10039 15.8212L8.05714 5.41958C8.15831 5.53783 9.25218 6.75231 9.51828 8.76731L-6.344 10.8621ZM-3.82223 3.08465C-5.79248 5.1643 -6.71906 8.02199 -6.344 10.8621L9.51828 8.76731C9.7749 10.7105 9.14092 12.6658 7.79286 14.0887L-3.82223 3.08465ZM0.904489 0.385567C0.387665 0.509845 -1.88655 1.04148 -3.82224 3.08465L7.79286 14.0887C6.395 15.5642 4.79661 15.9057 4.6453 15.9421L0.904489 0.385567ZM2.26829 0.135165C2.15006 0.152422 1.52131 0.237243 0.904499 0.385564L4.64529 15.9421C4.59802 15.9535 4.55792 15.9625 4.5263 15.9692C4.49458 15.976 4.46875 15.9812 4.44984 15.9849C4.41349 15.992 4.39359 15.9952 4.3967 15.9947C4.39952 15.9942 4.41383 15.9919 4.44667 15.9869C4.46255 15.9845 4.48093 15.9818 4.50335 15.9785C4.52627 15.9751 4.55 15.9717 4.57916 15.9674L2.26829 0.135165ZM2.3015 0.130316C2.29081 0.131878 2.28003 0.133452 2.26823 0.135175L4.57922 15.9674C4.59059 15.9657 4.60294 15.9639 4.61535 15.9621L2.3015 0.130316ZM7.08874 -0.569411L2.3014 0.130331L4.61545 15.9621L9.40279 15.2624L7.08874 -0.569411ZM3.21229 -0.5303L1.0721 3.80549L15.4194 10.8875L17.5596 6.55168L3.21229 -0.5303ZM3.22718 -0.56048C3.22172 -0.549407 3.21704 -0.539909 3.21228 -0.530267L17.5596 6.55165C17.5652 6.54034 17.5709 6.52885 17.5758 6.5189L3.22718 -0.56048ZM3.88582 -1.78065C3.55455 -1.23958 3.28001 -0.667546 3.22712 -0.560348L17.5759 6.51877C17.5889 6.49233 17.5995 6.47082 17.6098 6.45004C17.6198 6.42972 17.6281 6.41307 17.6353 6.3987C17.6501 6.36896 17.6568 6.35606 17.6581 6.35351C17.6596 6.3507 17.6503 6.36861 17.6324 6.401C17.6231 6.41786 17.6102 6.44083 17.594 6.4689C17.5778 6.49688 17.5569 6.53226 17.5315 6.57373L3.88582 -1.78065ZM7.91145 -5.44553C5.37032 -4.23394 4.16323 -2.23376 3.88581 -1.78063L17.5315 6.57371C17.4504 6.7062 16.6326 8.1219 14.7975 8.99686L7.91145 -5.44553ZM21.7333 0.135397L16.9113 -0.569412L14.5973 15.2624L19.4193 15.9672L21.7333 0.135397ZM23.6564 20.2202L27.1442 16.8231L15.9805 5.36137L12.4927 8.75851L23.6564 20.2202ZM26.7824 17.9353L25.9594 13.137L10.1897 15.8417L11.0126 20.64L26.7824 17.9353ZM8.27641 25.9804L12.5871 28.2474L20.0343 14.0862L15.7236 11.8193L8.27641 25.9804ZM11.413 28.2474L15.7236 25.9804L8.27641 11.8193L3.96574 14.0862L11.413 28.2474ZM-1.95937 13.137L-2.78233 17.9353L12.9874 20.64L13.8104 15.8417L-1.95937 13.137Z" fill="#ffd666" mask="url(#path-1-inside-1_1041_8)"/>
</svg>
