<svg width="20" height="20" viewBox="0 0 20 20" fill="none" xmlns="http://www.w3.org/2000/svg">
<g clip-path="url(#clip0_896_11760)">
<path d="M10 0C4.4772 0 0 4.4772 0 10C0 15.5228 4.4772 20 10 20C15.5228 20 20 15.5228 20 10C20 4.4772 15.5228 0 10 0ZM15.3952 7.461L9.0478 13.8082C8.8726 13.9834 8.6428 14.0712 8.4132 14.0712C8.1834 14.0712 7.9536 13.9834 7.7786 13.8082L4.605 10.6346C4.2544 10.284 4.2544 9.7158 4.605 9.3652C4.9556 9.0146 5.5238 9.0146 5.8744 9.3652L8.4132 11.904L14.1256 6.1916C14.4762 5.841 15.0446 5.841 15.3952 6.1916C15.7456 6.5422 15.7456 7.1106 15.3952 7.461Z" fill="#687079"/>
</g>
<defs>
<clipPath id="clip0_896_11760">
<rect width="20" height="20" fill="white"/>
</clipPath>
</defs>
</svg>
