<svg width="400" height="104" viewBox="0 0 400 104" fill="none" xmlns="http://www.w3.org/2000/svg">
<path d="M146.719 38.2594C152.3 35.3136 156.103 29.4529 156.103 22.7039C156.103 12.9956 148.233 5.12549 138.525 5.12549C133.17 5.12549 128.374 7.51978 125.15 11.2962C120.787 8.80455 116.029 7.01696 111.048 6.02622C101.955 4.2175 92.5299 5.1458 83.9644 8.69371C75.399 12.2416 68.078 18.2498 62.9272 25.9585C57.7765 33.6672 55.0273 42.7301 55.0273 52.0013H78.4651C78.4651 47.3657 79.8397 42.8342 82.4151 38.9799C84.9905 35.1255 88.651 32.1214 92.9337 30.3475C97.2164 28.5735 101.929 28.1094 106.476 29.0137C111.022 29.9181 115.198 32.1503 118.476 35.4282C121.754 38.706 123.986 42.8823 124.891 47.4288C125.795 51.9753 125.331 56.6878 123.557 60.9706C121.783 65.2533 118.779 68.9138 114.924 71.4891C111.07 74.0645 106.539 75.4391 101.903 75.4391V98.877C111.174 98.877 120.237 96.1278 127.946 90.977C135.654 85.8263 141.663 78.5053 145.211 69.9398C148.758 61.3744 149.687 51.9493 147.878 42.8563C147.569 41.3005 147.181 39.7665 146.719 38.2594Z" fill="white"/>
<path d="M42.0059 32.5134C45.8602 29.938 50.3917 28.5634 55.0273 28.5634V5.12549C45.7561 5.12549 36.6932 7.8747 28.9845 13.0255C21.2758 18.1763 15.2676 25.4972 11.7197 34.0627C8.1718 42.6281 7.2435 52.0532 9.05221 61.1462C9.36167 62.702 9.74886 64.236 10.211 65.7431C4.6306 68.6889 0.827148 74.5496 0.827148 81.2986C0.827148 91.0069 8.69727 98.877 18.4056 98.877C23.7603 98.877 28.5559 96.4827 31.78 92.7063C36.1429 95.198 40.9015 96.9855 45.8823 97.9763C54.9753 99.785 64.4004 98.8567 72.9658 95.3088C81.5313 91.7609 88.8523 85.7527 94.003 78.044C99.1538 70.3353 101.903 61.2724 101.903 52.0012L78.4651 52.0013C78.4651 56.6368 77.0905 61.1683 74.5151 65.0226C71.9398 68.877 68.2793 71.8811 63.9966 73.655C59.7138 75.429 55.0013 75.8931 50.4548 74.9888C45.9083 74.0844 41.732 71.8522 38.4542 68.5743C35.1763 65.2965 32.9441 61.1202 32.0397 56.5737C31.1354 52.0272 31.5995 47.3147 33.3735 43.032C35.1474 38.7492 38.1515 35.0887 42.0059 32.5134Z" fill="#1C74E0"/>
<path d="M187.354 84.5792V22.0782H200.568V73.6843H227.363V84.5792H187.354Z" fill="white"/>
<path d="M295.076 57.4792V84.5792H282.075V37.7035H294.466V45.9739H295.015C296.053 43.2476 297.792 41.091 300.234 39.504C302.675 37.8968 305.635 37.0931 309.114 37.0931C312.37 37.0931 315.208 37.8052 317.629 39.2294C320.05 40.6536 321.932 42.6881 323.275 45.333C324.618 47.9576 325.289 51.0907 325.289 54.7326V84.5792H312.288V57.0519C312.309 54.1832 311.576 51.9452 310.091 50.338C308.606 48.7103 306.561 47.8965 303.957 47.8965C302.207 47.8965 300.661 48.2729 299.318 49.0257C297.996 49.7785 296.958 50.8771 296.205 52.3216C295.473 53.7458 295.096 55.465 295.076 57.4792Z" fill="white"/>
<path d="M377.789 22.0782V84.5792H364.788V22.0782H377.789Z" fill="white"/>
<path d="M385.625 84.5792V37.7035H398.626V84.5792H385.625ZM392.156 31.6609C390.223 31.6609 388.565 31.02 387.181 29.7383C385.818 28.4362 385.137 26.8797 385.137 25.069C385.137 23.2786 385.818 21.7425 387.181 20.4608C388.565 19.1587 390.223 18.5076 392.156 18.5076C394.089 18.5076 395.737 19.1587 397.1 20.4608C398.483 21.7425 399.175 23.2786 399.175 25.069C399.175 26.8797 398.483 28.4362 397.1 29.7383C395.737 31.02 394.089 31.6609 392.156 31.6609Z" fill="white"/>
<path fill-rule="evenodd" clip-rule="evenodd" d="M242.203 82.565C245.682 84.5182 249.832 85.4948 254.654 85.4948C258.52 85.4948 261.928 84.9048 264.878 83.7247C267.848 82.5244 270.269 80.856 272.141 78.7198C274.033 76.5632 275.284 74.0403 275.895 71.1513L263.871 70.3578C263.423 71.5378 262.772 72.5348 261.918 73.3486C261.063 74.1624 260.036 74.7728 258.835 75.1797C257.635 75.5866 256.312 75.79 254.868 75.79C252.691 75.79 250.809 75.3323 249.222 74.4167C247.635 73.5012 246.404 72.1991 245.529 70.5104C244.675 68.8217 244.248 66.8177 244.248 64.4983V64.4678H276.169V60.8972C276.169 56.9095 275.61 53.4305 274.491 50.46C273.372 47.4693 271.805 44.9871 269.791 43.0136C267.797 41.0401 265.458 39.5651 262.772 38.5885C260.107 37.5916 257.228 37.0931 254.135 37.0931C249.537 37.0931 245.529 38.1104 242.111 40.1449C238.714 42.1795 236.079 45.0176 234.207 48.6595C232.335 52.3013 231.399 56.5331 231.399 61.355C231.399 66.2989 232.335 70.5816 234.207 74.2031C236.079 77.8042 238.744 80.5915 242.203 82.565ZM244.26 56.4111H263.932C263.932 54.5393 263.525 52.8811 262.711 51.4366C261.897 49.9921 260.768 48.8629 259.323 48.0491C257.899 47.2149 256.241 46.7979 254.349 46.7979C252.376 46.7979 250.626 47.2556 249.1 48.1712C247.594 49.0664 246.414 50.2769 245.56 51.8028C244.772 53.1917 244.338 54.7278 244.26 56.4111Z" fill="white"/>
<path fill-rule="evenodd" clip-rule="evenodd" d="M357.89 47.4693V37.7035H349.071V26.4728H336.07V37.7035H329.661V47.4693H336.07V71.8837C336.05 74.9559 336.691 77.499 337.993 79.5132C339.295 81.5274 341.116 83.0126 343.455 83.9689C345.815 84.9251 348.562 85.3422 351.695 85.2201C353.384 85.1591 354.818 84.9861 355.998 84.7013C357.178 84.4368 358.094 84.2029 358.745 83.9994L356.7 74.3252C356.375 74.3862 355.907 74.4778 355.296 74.5998C354.686 74.7016 354.076 74.7524 353.465 74.7524C352.591 74.7524 351.817 74.6202 351.146 74.3557C350.495 74.0912 349.986 73.6334 349.62 72.9824C349.254 72.311 349.071 71.3751 349.071 70.1747V47.4693H357.89Z" fill="white"/>
</svg>
