<svg width="858" height="224" viewBox="0 0 858 224" fill="none" xmlns="http://www.w3.org/2000/svg">
<path d="M314.241 82.4054C326.26 76.0606 334.452 63.4376 334.452 48.9012C334.452 27.9911 317.501 11.04 296.591 11.04C285.058 11.04 274.729 16.197 267.785 24.3308C258.388 18.9642 248.138 15.114 237.411 12.9801C217.826 9.08438 197.525 11.0838 179.077 18.7254C160.628 26.3671 144.86 39.3078 133.766 55.9111C122.672 72.5144 116.75 92.0346 116.75 112.003H167.232C167.232 102.019 170.193 92.2588 175.74 83.9572C181.287 75.6555 189.171 69.1852 198.395 65.3643C207.619 61.5435 217.77 60.5438 227.562 62.4917C237.355 64.4395 246.349 69.2474 253.409 76.3074C260.469 83.3674 265.277 92.3623 267.225 102.155C269.173 111.947 268.173 122.097 264.352 131.322C260.532 140.546 254.061 148.43 245.76 153.977C237.458 159.524 227.698 162.485 217.714 162.485V212.966C237.682 212.966 257.202 207.045 273.806 195.951C290.409 184.857 303.35 169.089 310.991 150.64C318.633 132.192 320.632 111.891 316.737 92.3063C316.07 88.9555 315.236 85.6514 314.241 82.4054Z" fill="#28272B"/>
<path d="M88.7044 70.0293C97.006 64.4823 106.766 61.5216 116.75 61.5216V11.04C96.7818 11.04 77.2616 16.9614 60.6583 28.0554C44.055 39.1494 31.1143 54.9177 23.4726 73.3663C15.831 91.8149 13.8316 112.115 17.7272 131.7C18.3938 135.051 19.2277 138.355 20.223 141.601C8.20376 147.946 0.0117188 160.569 0.0117188 175.105C0.0117188 196.015 16.9628 212.966 37.8729 212.966C49.4062 212.966 59.7351 207.809 66.6795 199.676C76.0763 205.042 86.3256 208.892 97.0535 211.026C116.638 214.922 136.939 212.923 155.387 205.281C173.836 197.639 189.604 184.699 200.698 168.095C211.792 151.492 217.714 131.972 217.714 112.003L167.232 112.003C167.232 121.988 164.271 131.748 158.724 140.049C153.177 148.351 145.293 154.821 136.069 158.642C126.845 162.463 116.694 163.463 106.902 161.515C97.1095 159.567 88.1145 154.759 81.0546 147.699C73.9946 140.639 69.1867 131.644 67.2388 121.852C65.291 112.059 66.2907 101.909 70.1115 92.6847C73.9324 83.4604 80.4027 75.5763 88.7044 70.0293Z" fill="#1C74E0"/>
<path d="M401.761 182.171V47.5536H430.223V158.705H487.935V182.171H401.761Z" fill="#28272B"/>
<path d="M633.779 123.802V182.171H605.777V81.208H632.464V99.0212H633.647C635.882 93.1492 639.629 88.5042 644.887 85.0862C650.146 81.6243 656.521 79.8934 664.015 79.8934C671.026 79.8934 677.139 81.4271 682.354 84.4946C687.569 87.562 691.622 91.9441 694.514 97.6408C697.406 103.294 698.852 110.042 698.852 117.886V182.171H670.851V122.882C670.895 116.703 669.317 111.883 666.118 108.421C662.919 104.915 658.515 103.162 652.906 103.162C649.138 103.162 645.807 103.973 642.915 105.594C640.067 107.216 637.832 109.582 636.211 112.693C634.633 115.761 633.822 119.464 633.779 123.802Z" fill="#28272B"/>
<path d="M811.929 47.5536V182.171H783.928V47.5536H811.929Z" fill="#28272B"/>
<path d="M828.807 182.171V81.208H856.809V182.171H828.807ZM842.874 68.1932C838.711 68.1932 835.139 66.8129 832.159 64.0522C829.223 61.2476 827.755 57.8953 827.755 53.9953C827.755 50.139 829.223 46.8306 832.159 44.0699C835.139 41.2653 838.711 39.8631 842.874 39.8631C847.036 39.8631 850.586 41.2653 853.522 44.0699C856.502 46.8306 857.992 50.139 857.992 53.9953C857.992 57.8953 856.502 61.2476 853.522 64.0522C850.586 66.8129 847.036 68.1932 842.874 68.1932Z" fill="#28272B"/>
<path fill-rule="evenodd" clip-rule="evenodd" d="M519.898 177.833C527.391 182.04 536.331 184.143 546.716 184.143C555.042 184.143 562.382 182.872 568.736 180.331C575.134 177.745 580.349 174.152 584.38 169.551C588.456 164.906 591.15 159.472 592.465 153.249L566.567 151.54C565.603 154.082 564.201 156.229 562.36 157.982C560.52 159.735 558.307 161.05 555.721 161.926C553.136 162.802 550.288 163.241 547.176 163.241C542.487 163.241 538.434 162.255 535.016 160.283C531.598 158.311 528.947 155.506 527.062 151.869C525.222 148.232 524.302 143.916 524.302 138.92V138.854H593.057V131.164C593.057 122.575 591.852 115.082 589.441 108.684C587.031 102.242 583.657 96.8959 579.319 92.6453C575.024 88.3946 569.985 85.2176 564.201 83.1142C558.46 80.967 552.259 79.8934 545.599 79.8934C535.695 79.8934 527.062 82.0844 519.701 86.4665C512.383 90.8486 506.708 96.9616 502.676 104.806C498.645 112.649 496.629 121.764 496.629 132.15C496.629 142.798 498.645 152.022 502.676 159.823C506.708 167.579 512.448 173.582 519.898 177.833ZM524.328 121.501H566.698C566.698 117.47 565.822 113.898 564.069 110.787C562.316 107.676 559.884 105.244 556.773 103.491C553.706 101.694 550.134 100.796 546.059 100.796C541.808 100.796 538.04 101.782 534.753 103.754C531.51 105.682 528.969 108.289 527.128 111.576C525.43 114.567 524.497 117.876 524.328 121.501Z" fill="#28272B"/>
<path fill-rule="evenodd" clip-rule="evenodd" d="M769.071 102.242V81.208H750.075V57.0189H722.073V81.208H708.27V102.242H722.073V154.827C722.029 161.444 723.41 166.922 726.214 171.26C729.019 175.598 732.941 178.797 737.98 180.857C743.063 182.916 748.979 183.814 755.728 183.552C759.365 183.42 762.454 183.048 764.996 182.434C767.537 181.864 769.509 181.361 770.912 180.922L766.508 160.086C765.807 160.217 764.799 160.414 763.484 160.677C762.169 160.896 760.855 161.006 759.54 161.006C757.656 161.006 755.991 160.721 754.545 160.151C753.142 159.582 752.047 158.596 751.258 157.193C750.469 155.747 750.075 153.731 750.075 151.146V102.242H769.071Z" fill="#28272B"/>
</svg>
